<svg xmlns="http://www.w3.org/2000/svg" viewBox="0 0 100 100" width="100" height="100">
  <defs>
    <radialGradient id="sunGradient" cx="50%" cy="50%" r="50%">
      <stop offset="0%" style="stop-color:#FF8C00;stop-opacity:1" />
      <stop offset="100%" style="stop-color:#FF6600;stop-opacity:1" />
    </radialGradient>
    <radialGradient id="rayGradient" cx="50%" cy="50%" r="50%">
      <stop offset="0%" style="stop-color:#FFD700;stop-opacity:1" />
      <stop offset="100%" style="stop-color:#FF8C00;stop-opacity:0.8" />
    </radialGradient>
  </defs>
  
  <!-- Enhanced sun rays - stronger and more prominent -->
  <g stroke="url(#rayGradient)" stroke-width="4" stroke-linecap="round">
    <!-- Main cardinal rays (longer and thicker) -->
    <line x1="50" y1="5" x2="50" y2="25" stroke-width="5" />
    <line x1="50" y1="75" x2="50" y2="95" stroke-width="5" />
    <line x1="5" y1="50" x2="25" y2="50" stroke-width="5" />
    <line x1="75" y1="50" x2="95" y2="50" stroke-width="5" />
    
    <!-- Diagonal rays -->
    <line x1="21.22" y1="21.22" x2="35.36" y2="35.36" stroke-width="4" />
    <line x1="64.64" y1="64.64" x2="78.78" y2="78.78" stroke-width="4" />
    <line x1="78.78" y1="21.22" x2="64.64" y2="35.36" stroke-width="4" />
    <line x1="35.36" y1="64.64" x2="21.22" y2="78.78" stroke-width="4" />
    
    <!-- Additional smaller rays for more intensity -->
    <line x1="38.27" y1="8.78" x2="42.68" y2="19.64" stroke-width="3" />
    <line x1="61.73" y1="8.78" x2="57.32" y2="19.64" stroke-width="3" />
    <line x1="91.22" y1="38.27" x2="80.36" y2="42.68" stroke-width="3" />
    <line x1="91.22" y1="61.73" x2="80.36" y2="57.32" stroke-width="3" />
    <line x1="61.73" y1="91.22" x2="57.32" y2="80.36" stroke-width="3" />
    <line x1="38.27" y1="91.22" x2="42.68" y2="80.36" stroke-width="3" />
    <line x1="8.78" y1="61.73" x2="19.64" y2="57.32" stroke-width="3" />
    <line x1="8.78" y1="38.27" x2="19.64" y2="42.68" stroke-width="3" />
  </g>
  
  <!-- Simple orange sun circle -->
  <circle cx="50" cy="50" r="25" fill="url(#sunGradient)" stroke="#FF6600" stroke-width="2"/>
</svg>